<svg xmlns="http://www.w3.org/2000/svg" viewBox="0 0 64 64">
  <defs>
    <radialGradient id="core" cx="50%" cy="46%" r="62%">
      <stop offset="0%" stop-color="#ffb3f7"/>
      <stop offset="30%" stop-color="#e85cff"/>
      <stop offset="65%" stop-color="#8b2fe8"/>
      <stop offset="100%" stop-color="#26073f"/>
    </radialGradient>
    <radialGradient id="glow" cx="50%" cy="50%" r="50%">
      <stop offset="0%" stop-color="#ffffff" stop-opacity="0.9"/>
      <stop offset="100%" stop-color="#ff7df2" stop-opacity="0"/>
    </radialGradient>
  </defs>
  <circle cx="32" cy="32" r="30" fill="url(#core)"/>
  <circle cx="32" cy="32" r="30" fill="none" stroke="#c86bff" stroke-width="1.5" opacity="0.7"/>
  <g stroke="#ff9df5" stroke-width="2" fill="none" stroke-linecap="round" opacity="0.95">
    <path d="M32 32 L25 24 L21 17 L16 11"/>
    <path d="M32 32 L41 26 L45 18 L52 13"/>
    <path d="M32 32 L23 37 L14 40 L8 45"/>
    <path d="M32 32 L38 41 L37 49 L42 56"/>
    <path d="M32 32 L44 35 L52 33"/>
  </g>
  <g stroke="#ffd6fb" stroke-width="1" fill="none" stroke-linecap="round" opacity="0.8">
    <path d="M32 32 L27 25 L23 18"/>
    <path d="M32 32 L40 27 L44 19"/>
    <path d="M32 32 L37 40 L37 48"/>
  </g>
  <circle cx="32" cy="32" r="8" fill="url(#glow)"/>
  <circle cx="32" cy="32" r="4.5" fill="#ffffff"/>
</svg>
